<svg width="30.000000" height="30.000000" viewBox="0 0 30 30" fill="none" xmlns="http://www.w3.org/2000/svg" xmlns:xlink="http://www.w3.org/1999/xlink">
	<desc>
			Created with Pixso.
	</desc>
	<defs>
		<clipPath id="clip1_382">
			<rect width="20.000000" height="20.000000" transform="translate(5.000000 4.500000)" fill="white" fill-opacity="0"/>
		</clipPath>
	</defs>
	<g opacity="0.400000">
		<rect width="20.000000" height="20.000000" transform="translate(5.000000 4.500000)" fill="#FFFFFF" fill-opacity="0"/>
		<g clip-path="url(#clip1_382)">
			<path d="M21.66 7.83C22.58 7.83 23.33 8.57 23.33 9.5L23.33 10.33C23.33 11.25 22.58 12 21.66 12L8.33 12C7.41 12 6.66 11.25 6.66 10.33L6.66 9.5C6.66 8.57 7.41 7.83 8.33 7.83L21.66 7.83Z" stroke="#FFFFFF" stroke-opacity="1.000000" stroke-width="2.000000" stroke-linejoin="round"/>
			<path d="M8.33 12L8.33 19.5C8.33 19.94 8.5 20.36 8.82 20.67C9.13 20.99 9.55 21.16 9.99 21.16L19.99 21.16C20.44 21.16 20.86 20.99 21.17 20.67C21.49 20.36 21.66 19.94 21.66 19.5L21.66 12" stroke="#FFFFFF" stroke-opacity="1.000000" stroke-width="2.000000" stroke-linejoin="round" stroke-linecap="round"/>
			<path d="M13.33 15.33L16.66 15.33" stroke="#FFFFFF" stroke-opacity="1.000000" stroke-width="2.000000" stroke-linejoin="round" stroke-linecap="round"/>
		</g>
		<rect rx="14.500000" width="29.000000" height="29.000000" transform="translate(0.500000 0.000000)" stroke="#FFFFFF" stroke-opacity="1.000000" stroke-width="1.000000"/>
	</g>
</svg>
