<svg width="18.000000" height="18.000000" viewBox="0 0 18 18" fill="none" xmlns="http://www.w3.org/2000/svg" xmlns:xlink="http://www.w3.org/1999/xlink">
	<desc>
			Created with Pixso.
	</desc>
	<defs>
		<clipPath id="clip1_303">
			<rect width="18.000000" height="18.000000" transform="translate(0.000000 -0.500000)" fill="white" fill-opacity="0"/>
		</clipPath>
	</defs>
	<g opacity="0.600000">
		<rect width="18.000000" height="18.000000" transform="translate(0.000000 -0.500000)" fill="#FFFFFF" fill-opacity="0"/>
		<g clip-path="url(#clip1_303)">
			<path d="M15 14.5C15.39 14.5 15.77 14.34 16.06 14.06C16.34 13.77 16.5 13.39 16.5 13L16.5 5.5C16.5 5.1 16.34 4.72 16.06 4.43C15.77 4.15 15.39 4 15 4L9.05 4C8.8 3.99 8.56 3.93 8.34 3.81C8.12 3.7 7.94 3.53 7.8 3.32L7.19 2.42C7.05 2.21 6.87 2.04 6.65 1.93C6.43 1.81 6.19 1.75 5.94 1.75L3 1.75C2.6 1.75 2.22 1.9 1.93 2.18C1.65 2.47 1.5 2.85 1.5 3.25L1.5 13C1.5 13.82 2.17 14.5 3 14.5L15 14.5Z" stroke="#FFFFFF" stroke-opacity="1.000000" stroke-width="2.000000" stroke-linejoin="round"/>
		</g>
	</g>
</svg>
